HIERARCHY
ROOT Hips
{
	OFFSET -3.958830 18.904000 13.208200
	CHANNELS 6 Xposition Yposition Zposition Zrotation Yrotation Xrotation 
	JOINT LHipJoint
	{
		OFFSET 0.000000 0.000000 0.000000
		CHANNELS 3 Zrotation Yrotation Xrotation
		JOINT LeftUpLeg
		{
			OFFSET 1.800000 -1.400000 0.085000
			CHANNELS 3 Zrotation Yrotation Xrotation
			JOINT LeftLeg
			{
				OFFSET 2.215000 -6.000000 0.000000
				CHANNELS 3 Zrotation Yrotation Xrotation
				JOINT LeftFoot
				{
					OFFSET 2.500000 -6.900000 0.000000
					CHANNELS 3 Zrotation Yrotation Xrotation
					JOINT LeftToeBase
					{
						OFFSET 0.200000 -0.500000 1.950000
						CHANNELS 3 Zrotation Yrotation Xrotation
						End Site
						{
							OFFSET 0.000000 0.000000 0.000000
						}
					}
				}
			}
		}
	}
	JOINT RHipJoint
	{
		OFFSET 0.000000 0.000000 0.000000
		CHANNELS 3 Zrotation Yrotation Xrotation
		JOINT RightUpLeg
		{
			OFFSET -1.800000 -1.400000 0.085000
			CHANNELS 3 Zrotation Yrotation Xrotation
			JOINT RightLeg
			{
				OFFSET -2.215000 -6.000000 0.000000
				CHANNELS 3 Zrotation Yrotation Xrotation
				JOINT RightFoot
				{
					OFFSET -2.500000 -6.900000 0.000000
					CHANNELS 3 Zrotation Yrotation Xrotation
					JOINT RightToeBase
					{
						OFFSET -0.200000 -0.500000 1.950000
						CHANNELS 3 Zrotation Yrotation Xrotation
						End Site
						{
							OFFSET 0.000000 0.000000 0.000000
						}
					}
				}
			}
		}
	}
	JOINT LowerBack
	{
		OFFSET 0.000000 0.000000 0.000000
		CHANNELS 3 Zrotation Yrotation Xrotation
		JOINT Spine
		{
			OFFSET -0.087000 1.940000 -0.288900
			CHANNELS 3 Zrotation Yrotation Xrotation
			JOINT Spine1
			{
				OFFSET 0.000000 1.950000 0.060000
				CHANNELS 3 Zrotation Yrotation Xrotation
				JOINT Neck
				{
					OFFSET 0.000000 0.000000 0.000000
					CHANNELS 3 Zrotation Yrotation Xrotation
					JOINT Neck1
					{
						OFFSET 0.000000 1.600000 0.340000
						CHANNELS 3 Zrotation Yrotation Xrotation
						JOINT Head
						{
							OFFSET 0.000000 1.667000 -0.240000
							CHANNELS 3 Zrotation Yrotation Xrotation
							End Site
							{
								OFFSET 0.000000 0.000000 0.000000
							}
						}
					}
				}
				JOINT LeftShoulder
				{
					OFFSET 0.000000 0.000000 0.000000
					CHANNELS 3 Zrotation Yrotation Xrotation
					JOINT LeftArm
					{
						OFFSET 2.700000 1.550000 -0.730000
						CHANNELS 3 Zrotation Yrotation Xrotation
						JOINT LeftForeArm
						{
							OFFSET 5.450000 0.000000 0.000000
							CHANNELS 3 Zrotation Yrotation Xrotation
							JOINT LeftHand
							{
								OFFSET 3.450000 0.000000 0.000000
								CHANNELS 3 Zrotation Yrotation Xrotation
								JOINT LeftHandIndex1
								{
									OFFSET 0.750000 0.000000 0.000000
									CHANNELS 3 Zrotation Yrotation Xrotation
									End Site
									{
										OFFSET 0.000000 0.000000 0.000000
									}
								}
							}
						}
					}
				}
				JOINT RightShoulder
				{
					OFFSET 0.000000 0.000000 0.000000
					CHANNELS 3 Zrotation Yrotation Xrotation
					JOINT RightArm
					{
						OFFSET -2.700000 1.550000 -0.730000
						CHANNELS 3 Zrotation Yrotation Xrotation
						JOINT RightForeArm
						{
							OFFSET -5.450000 0.000000 0.000000
							CHANNELS 3 Zrotation Yrotation Xrotation
							JOINT RightHand
							{
								OFFSET -3.450000 0.000000 0.000000
								CHANNELS 3 Zrotation Yrotation Xrotation
								JOINT RightHandIndex1
								{
									OFFSET -0.750000 0.000000 0.000000
									CHANNELS 3 Zrotation Yrotation Xrotation
									End Site
									{
										OFFSET 0.000000 0.000000 0.000000
									}
								}
							}
						}
					}
				}
			}
		}
	}
}
MOTION
Frames: 9
Frame Time: 0.016667
15.623110 15.422340 -16.312160 2.151513 72.795041 1.014126 -15.641821 13.001682 2.836673 28.629630 -4.238672 19.374578 -2.823961 8.436421 10.519116 0.673572 7.783525 2.046995 0.285730 -0.131580 0.366370 17.954017 -7.669825 5.931148 -25.773811 5.099475 -51.692422 33.722118 -16.906834 30.493233 -1.082594 -7.487570 1.580837 -0.170680 -0.094280 0.315080 -3.342653 -3.810695 -9.609412 21.792008 -11.778262 22.215612 -7.814476 -3.579123 -7.117524 4.134713 2.566212 -17.473646 3.440227 -15.290754 31.767268 -1.025240 -13.067630 -19.346440 -7.676315 -11.528584 6.730729 -18.787743 7.628804 -1.485391 1.814668 8.758896 -0.718307 -4.022826 2.612725 0.687270 -0.196160 0.217080 0.031360 -5.070759 16.145466 14.255930 32.574885 1.266513 -2.018074 -11.756680 1.963621 0.559049 2.646500 -1.195639 -0.041780 -0.001450 0.006820 -0.196410 
15.857200 15.488220 -15.951560 5.413313 74.370999 8.190231 -15.588640 12.962839 2.922469 27.729368 -5.477564 16.591138 -1.288187 7.153579 7.404556 0.653555 7.252149 2.261071 0.180350 -0.250750 0.297360 17.981539 -7.613895 6.046652 -24.706066 4.219755 -53.393200 34.320094 -17.884202 30.784417 -1.046588 -7.713187 1.520047 -0.239460 -0.056760 0.294160 -3.257021 -4.115518 -9.724593 21.397936 -12.805121 19.069088 -7.815527 -3.429813 -14.756955 2.873913 2.147232 -17.095910 2.693618 -16.672429 30.011107 -2.719120 -14.423550 -13.358540 -2.141693 -7.535189 4.739859 -19.580301 5.153652 -2.037214 2.114861 12.335592 -0.378129 -4.216781 2.549263 0.569350 -0.141420 0.125190 0.015430 -8.771948 13.236486 14.857116 36.942511 -5.239223 -5.283602 -15.164075 10.873246 -0.339313 2.562748 -1.352118 -0.041050 -0.067220 0.022470 -0.170350 
16.038500 15.560030 -15.586690 9.687431 74.810096 15.415362 -15.550460 12.821758 3.136592 26.266651 -6.354854 15.864235 -0.647139 6.127757 3.149540 0.693754 6.966145 2.388711 0.109730 -0.335330 0.252480 18.016843 -7.555262 6.095036 -22.962212 4.363593 -55.358610 33.182478 -18.837397 32.992754 -1.057166 -7.979435 1.446573 -0.301500 -0.027490 0.316720 -3.189260 -4.239565 -9.875722 19.585849 -13.404076 16.142138 -6.684661 -4.011078 -19.690619 2.241008 1.948566 -16.742410 2.119841 -16.559338 30.220723 -4.360880 -14.188160 -9.297480 0.923447 -4.384690 4.276576 -18.363553 8.144616 -3.083828 4.746254 6.892151 -0.310249 -4.218591 2.542852 0.508330 -0.092980 0.085830 0.005010 -10.704895 10.252742 14.337246 32.304183 -6.341421 -4.586762 -9.446992 9.590704 0.199888 2.617247 -1.267528 -0.025790 -0.122950 0.042400 -0.155120 
16.194700 15.657320 -15.271210 14.390708 75.909007 20.340638 -15.506008 12.818433 3.213247 24.827132 -6.659648 15.056700 0.667829 5.402139 1.128113 0.632933 6.751368 2.497710 0.037510 -0.421970 0.212780 18.025274 -7.756603 5.951687 -21.351765 3.907647 -54.193449 33.050548 -19.583893 34.029255 -1.071149 -8.201260 1.395635 -0.332190 0.055300 0.329250 -3.155464 -4.172237 -9.823760 17.540422 -14.160272 15.036806 -6.618365 -5.222548 -20.445570 2.169195 2.534758 -17.065618 3.076321 -16.362831 29.999580 -5.218030 -13.721300 -7.284030 2.050343 -4.857338 4.914339 -13.830693 8.613180 -2.713059 2.337112 7.937993 -0.783386 -4.367939 2.380125 0.483340 -0.021790 0.039930 -0.009160 -11.786332 9.617482 14.208859 28.995522 -5.930229 -3.736970 -6.660381 2.688792 0.491727 2.732628 -1.102079 -0.061880 -0.086190 0.097980 -0.154590 
16.342520 15.769490 -14.933170 15.039930 75.500606 22.580734 -15.592551 12.872841 3.353517 24.305600 -7.008881 12.831946 -0.401834 5.127295 -0.324139 0.504399 6.643667 2.567936 0.136020 -0.284600 0.266240 17.919907 -7.814593 5.686651 -17.217292 5.185706 -53.937356 29.959616 -18.896917 35.509888 -1.038997 -8.002120 1.477337 -0.201890 0.127860 0.348640 -2.949014 -4.458507 -9.721330 16.242759 -14.459538 14.055123 -4.810155 -6.288050 -22.165826 3.153014 2.105549 -15.303149 2.930034 -15.086213 25.755179 -7.149390 -10.722750 -8.486670 1.055390 -1.262935 3.745166 -9.729668 11.476128 -2.283991 4.982320 1.556881 -0.719668 -4.337499 2.417512 0.447980 0.064620 0.023810 0.055590 -12.152557 6.025668 12.567169 21.618678 -4.186302 -2.767028 -6.240725 -3.971023 0.462748 2.820834 -1.074682 -0.094190 -0.015930 0.050980 -0.157640 
16.438160 15.932240 -14.615520 17.807439 75.567366 24.409673 -15.494613 12.934075 3.330221 22.636435 -6.222949 11.321521 -0.828726 4.949952 -0.263036 0.458235 6.257515 2.675299 0.068890 -0.359830 0.266920 17.949024 -8.392400 5.341873 -13.101987 6.528077 -50.956311 25.559111 -17.255872 36.668068 -0.922359 -7.432503 1.663766 -0.287400 0.064030 0.345270 -3.101571 -3.771393 -9.460481 14.004348 -13.686289 14.244049 -5.459255 -6.425769 -20.902727 2.878548 3.674277 -15.834400 5.620714 -16.628076 25.697835 -7.464930 -10.741440 -8.424110 3.564366 -1.400086 4.484679 -9.056220 16.108375 -2.977070 4.384261 -13.591273 -0.032445 -3.960559 2.652562 0.479270 0.032870 0.059470 0.004700 -14.245689 4.169821 12.738921 23.143213 -7.687472 -4.032446 -3.103532 4.401752 0.130127 2.633231 -1.052839 -0.078100 -0.067180 0.063810 -0.181690 
16.554280 16.102850 -14.293240 23.834590 75.722145 30.210085 -15.479360 13.176969 3.345732 20.441131 -5.539695 8.830909 -1.526417 4.746024 0.073498 0.274470 6.006426 2.816939 0.048040 -0.361800 0.187660 17.885226 -8.899904 4.945798 -9.083940 6.535033 -47.882959 20.536781 -14.781010 36.238127 -0.651304 -6.698888 1.927810 -0.199030 0.261170 0.342900 -3.051032 -3.649885 -9.141267 11.640478 -14.632695 13.689371 -4.568855 -8.221798 -21.588805 2.767489 3.097335 -15.191954 5.191830 -14.591813 22.851946 -7.618830 -9.527790 -5.105870 3.150228 -0.633638 3.845348 -3.159215 17.528290 -1.578712 1.259544 -15.975974 0.247094 -4.077584 2.691060 0.351700 0.192540 -0.086220 0.052580 -13.743206 3.618938 12.246053 17.377154 -5.449274 -2.601284 -0.252374 0.595578 -0.368323 2.611174 -1.048986 -0.151030 0.019070 0.109690 -0.146290 
16.712070 16.295580 -13.979680 21.323180 73.294603 28.047209 -15.459874 13.332660 3.388832 17.002645 -4.527868 8.522919 -1.762274 4.538895 0.042807 0.357306 5.658566 2.969946 -0.026680 -0.464240 0.117200 17.844897 -9.382179 4.703355 -4.373749 7.542639 -44.147506 16.541500 -12.134723 34.933308 -0.449026 -5.754550 2.266878 -0.301960 0.271530 0.362200 -3.155864 -3.245307 -8.996807 9.457530 -11.617500 10.403434 -3.574055 -6.485792 -20.630159 2.486977 2.800914 -16.266052 4.155615 -15.722117 25.007211 -7.892980 -11.481310 -0.585390 5.045245 -2.274295 4.356316 -2.258497 12.134243 -1.659509 -3.235949 -13.728603 0.292045 -4.048143 2.731770 0.284980 0.189420 -0.111540 0.068420 -13.892197 4.556853 13.310001 14.616426 -12.265492 -3.612969 -2.391759 1.612621 -0.276371 2.724377 -1.068306 -0.100730 -0.063490 0.104520 -0.090960 
16.835510 16.547120 -13.610380 28.322349 71.206501 35.754957 -15.333173 13.362332 3.435010 12.458167 -2.914148 5.199687 -5.012251 4.647194 0.641587 0.243717 5.381324 3.018344 -0.191480 -0.661380 -0.009030 17.917884 -9.965290 4.397518 -1.889591 7.006392 -40.854114 11.230583 -8.723512 31.319113 -0.125365 -4.586566 2.604275 -0.400760 0.409410 0.559180 -2.964151 -2.261178 -8.671473 3.142345 -9.140712 8.075546 -2.378538 -6.012122 -21.936411 3.095708 3.356644 -16.066931 5.728191 -17.913795 22.506191 -10.617540 -12.214500 2.659580 1.340141 -4.053949 4.331592 8.460992 8.385420 0.245051 -4.739649 -2.742024 -1.316469 -4.586847 2.539938 0.149160 0.360590 -0.189630 -0.016740 -10.935761 5.498344 13.309326 5.958727 -24.717728 -3.497736 7.024612 13.207227 -0.003517 2.305557 -1.387561 -0.042400 -0.172480 0.285470 -0.046790 
